Coordinates
version=1
nRows=21
nColumns=12
inDegrees=yes

Units are S.I. units (second, meters, Newtons, ...)
Angles are in degrees

endheader
time	SC_y	SC_z	SC_x	AC_y	AC_z	AC_x	GH_y	GH_z	GH_yy	EL_x	PS_y
       0.0              -31.47          27.46          65.03          40.78          -10.3         -12.13          73.78          54.95          165.1          37.81          29.97
   0.01596              -31.48          27.45          65.02          40.78          -10.3         -12.12          73.77          54.94          165.1          37.81          29.97
   0.03192              -31.48          27.45          65.01          40.79          -10.3         -12.12          73.75          54.93          165.1          37.82          29.98
   0.04788              -31.48          27.44          65.01          40.79         -10.29         -12.12          73.73          54.92          165.0          37.83          29.98
   0.06384              -31.48          27.44           65.0          40.79         -10.29         -12.11          73.71          54.91          165.0          37.85          29.99
    0.0798              -31.48          27.43          64.99          40.79         -10.29         -12.11          73.69           54.9          165.0          37.86          29.99
   0.09576              -31.48          27.43          64.98          40.79         -10.28          -12.1          73.67          54.89          164.9          37.87           30.0
    0.1117              -31.48          27.42          64.96          40.79         -10.28          -12.1          73.65          54.87          164.9          37.88           30.0
    0.1277              -31.48          27.42          64.95          40.79         -10.28         -12.09          73.62          54.86          164.9           37.9          30.01
    0.1436              -31.48          27.41          64.94           40.8         -10.27         -12.08          73.59          54.84          164.8          37.91          30.02
    0.1596              -31.48           27.4          64.93           40.8         -10.27         -12.08          73.57          54.83          164.8          37.93          30.03
    0.1756              -31.48          27.39          64.91           40.8         -10.26         -12.07          73.53          54.81          164.7          37.94          30.04
    0.1915              -31.48          27.38          64.89           40.8         -10.25         -12.06           73.5          54.79          164.6          37.96          30.05
    0.2075              -31.48          27.37          64.88          40.81         -10.25         -12.05          73.46          54.77          164.6          37.98          30.06
    0.2234              -31.48          27.36          64.86          40.81         -10.24         -12.04          73.42          54.75          164.5          38.01          30.07
    0.2394              -31.48          27.35          64.84          40.81         -10.23         -12.03          73.38          54.72          164.4          38.03          30.08
    0.2553              -31.49          27.34          64.81          40.82         -10.22         -12.02          73.33          54.69          164.4          38.05          30.09
    0.2713              -31.49          27.33          64.79          40.82         -10.22         -12.01          73.28          54.67          164.3          38.08          30.11
    0.2873              -31.49          27.31          64.76          40.82         -10.21          -12.0          73.23          54.63          164.2          38.11          30.12
    0.3032              -31.49           27.3          64.73          40.83         -10.19         -11.99          73.17           54.6          164.1          38.15          30.14
    0.3192              -31.49          27.28           64.7          40.83         -10.18         -11.97           73.1          54.56          164.0          38.18          30.16
